Coordinates
version=1
nRows=33
nColumns=38
inDegrees=no

Units are S.I. units (second, meters, Newtons, ...)
If the header above contains a line with 'inDegrees', this indicates whether rotational values are in degrees (yes) or radians (no).

endheader
time	pelvis_tilt	pelvis_list	pelvis_rotation	pelvis_tx	pelvis_ty	pelvis_tz	hip_flexion_r	hip_adduction_r	hip_rotation_r	knee_angle_r	ankle_angle_r	subtalar_angle_r	mtp_angle_r	hip_flexion_l	hip_adduction_l	hip_rotation_l	knee_angle_l	ankle_angle_l	subtalar_angle_l	mtp_angle_l	lumbar_extension	lumbar_bending	lumbar_rotation	arm_flex_r	arm_add_r	arm_rot_r	elbow_flex_r	pro_sup_r	wrist_flex_r	wrist_dev_r	arm_flex_l	arm_add_l	arm_rot_l	elbow_flex_l	pro_sup_l	wrist_flex_l	wrist_dev_l
1.45	0.0881171	0.0015187	-0.184808	0.786115	0.971418	-0.354947	-0.181318	0.0441948	0.192772	-0.554396	0.301637	-0.0715466	-0.00596628	0.703918	-0.0280561	-0.0788989	-2.14892	0.176825	0.1	-0.0304246	-0.401206	-0.0193872	0.237612	0.0832863	-0.43387	-0.0796498	2.12658	1.48651	0.0999996	0.0799179	-0.682873	-0.422606	-0.233891	1.78564	1.56366	0.041587	-0.0936917
1.45833	0.0768655	0.0203679	-0.187655	0.788335	0.975408	-0.353567	-0.243553	0.00896493	0.180114	-0.47915	0.22484	-0.0715466	-0.00596628	0.75187	-0.0202145	-0.0885328	-2.06571	0.182459	0.1	-0.0304246	-0.376347	-0.0418981	0.26225	0.0993655	-0.429509	-0.0384191	2.1586	1.50578	0.0999996	0.0799179	-0.704183	-0.441978	-0.257656	1.81516	1.54527	0.041587	-0.0936917
1.46667	0.0646205	0.0378619	-0.189058	0.790754	0.979313	-0.352371	-0.300237	-0.0239213	0.158763	-0.409377	0.137048	-0.0715466	-0.00596628	0.792747	-0.0142915	-0.0990955	-1.97424	0.187785	0.1	-0.0304246	-0.350317	-0.0619757	0.284918	0.113215	-0.428985	0.00571692	2.19049	1.52817	0.0999996	0.0799179	-0.725586	-0.461868	-0.281859	1.84492	1.5292	0.041587	-0.0936917
1.475	0.0517942	0.0532551	-0.188902	0.793214	0.983042	-0.351405	-0.350462	-0.0533659	0.128698	-0.349043	0.0435766	-0.0715466	-0.00596628	0.826071	-0.00991692	-0.109618	-1.87519	0.193103	0.1	-0.0304246	-0.324175	-0.0789103	0.305306	0.125298	-0.432038	0.0519996	2.22193	1.55301	0.0999996	0.0799179	-0.746621	-0.481533	-0.306854	1.87387	1.51578	0.041587	-0.0936917
1.48333	0.038763	0.0659218	-0.187156	0.79558	0.986517	-0.350701	-0.39354	-0.0785943	0.0908386	-0.301855	-0.0495601	-0.0715466	-0.00596628	0.851517	-0.00669827	-0.119271	-1.76913	0.198496	0.1	-0.0304246	-0.298884	-0.0921798	0.323237	0.135732	-0.438208	0.0993147	2.25265	1.57921	0.0999996	0.0799179	-0.766772	-0.500363	-0.332835	1.90135	1.50486	0.041587	-0.0936917
1.49167	0.0258091	0.0753607	-0.183883	0.797742	0.989674	-0.350258	-0.428975	-0.0991546	0.0471102	-0.271011	-0.136437	-0.0715466	-0.00596628	0.86896	-0.00434306	-0.12743	-1.65663	0.203809	0.1	-0.0304246	-0.275223	-0.101453	0.338684	0.144297	-0.446859	0.14631	2.28239	1.60539	0.0999996	0.0799179	-0.785504	-0.517924	-0.359838	1.92712	1.49584	0.041587	-0.0936917
1.5	0.0131269	0.0812134	-0.179233	0.799624	0.992462	-0.350043	-0.456457	-0.114902	0.000299312	-0.25897	-0.212056	-0.0715466	-0.00596628	0.878486	-0.00272327	-0.133704	-1.53835	0.208672	0.1	-0.0304246	-0.253744	-0.106595	0.351747	0.150516	-0.457215	0.191547	2.31084	1.62998	0.0999996	0.0799179	-0.802339	-0.533952	-0.387793	1.95121	1.48782	0.041587	-0.0936917
1.50833	0.000890031	0.0832893	-0.173426	0.801188	0.994844	-0.349991	-0.47591	-0.125969	-0.0463097	-0.267272	-0.273035	-0.0715466	-0.00596628	0.880351	-0.00186446	-0.137936	-1.41527	0.212581	0.1	-0.0304246	-0.234826	-0.107682	0.36258	0.153778	-0.468405	0.233656	2.33755	1.6514	0.0999996	0.0799179	-0.816908	-0.548337	-0.4166	1.97387	1.47982	0.041587	-0.0936917
1.51667	-0.010647	0.0815974	-0.166708	0.802421	0.996796	-0.350018	-0.487573	-0.132727	-0.0894315	-0.296433	-0.317977	-0.0715466	-0.00596628	0.874911	-0.0018706	-0.140173	-1.28875	0.215039	0.1	-0.0304246	-0.21877	-0.105019	0.371307	0.153491	-0.479532	0.271472	2.36193	1.66806	0.0999996	0.0799179	-0.828999	-0.561078	-0.446206	1.99547	1.47104	0.041587	-0.0936917
1.525	-0.0210573	0.0763762	-0.159315	0.803339	0.998303	-0.35004	-0.492092	-0.135714	-0.126285	-0.345915	-0.347432	-0.0715466	-0.00596628	0.862563	-0.00281685	-0.140609	-1.16065	0.215708	0.1	-0.0304246	-0.205911	-0.0991504	0.377954	0.149216	-0.489748	0.304115	2.38326	1.67852	0.0999996	0.0799179	-0.838568	-0.572254	-0.476647	2.01646	1.46104	0.041587	-0.0936917
1.53333	-0.0297184	0.0681038	-0.151433	0.803971	0.999357	-0.349988	-0.490545	-0.135561	-0.154959	-0.414211	-0.363454	-0.0715466	-0.00596628	0.843742	-0.00465853	-0.139517	-1.03337	0.214522	0.1	-0.0304246	-0.196676	-0.0908366	0.382405	0.14075	-0.498344	0.331012	2.40078	1.6817	0.0999996	0.0799179	-0.845715	-0.582014	-0.508054	2.03727	1.44989	0.041587	-0.0936917
1.54167	-0.0358757	0.0574842	-0.143171	0.804356	0.99995	-0.349827	-0.484363	-0.13291	-0.174591	-0.499017	-0.368917	-0.0715466	-0.00596628	0.818975	-0.00717866	-0.137176	-0.909819	0.211691	0.1	-0.0304246	-0.19155	-0.0810036	0.384413	0.128154	-0.504814	0.351874	2.41372	1.67707	0.0999996	0.0799179	-0.850644	-0.590572	-0.540612	2.05832	1.43819	0.041587	-0.0936917
1.55	-0.0387852	0.045399	-0.134545	0.804528	1.00008	-0.34955	-0.475161	-0.128369	-0.185362	-0.597472	-0.366764	-0.0715466	-0.00596628	0.788975	-0.00998107	-0.13382	-0.793243	0.207596	0.1	-0.0304246	-0.190975	-0.0706592	0.38364	0.111719	-0.508904	0.366635	2.42145	1.66481	0.0999996	0.0799179	-0.853599	-0.598219	-0.574491	2.07992	1.42699	0.041587	-0.0936917
1.55833	-0.0378913	0.0328386	-0.125485	0.804512	0.999755	-0.349182	-0.464495	-0.122504	-0.188354	-0.706466	-0.359412	-0.0715466	-0.00596628	0.754734	-0.0125211	-0.129592	-0.687043	0.202591	0.1	-0.0304246	-0.195203	-0.0607931	0.379719	0.0918929	-0.510607	0.375399	2.42349	1.64584	0.0999996	0.0799179	-0.854797	-0.605325	-0.609762	2.10231	1.41757	0.041587	-0.0936917
1.56667	-0.0329825	0.0208129	-0.115859	0.804316	0.998964	-0.348771	-0.453627	-0.115864	-0.185325	-0.822926	-0.348431	-0.0715466	-0.00596628	0.717551	-0.0141559	-0.12452	-0.594484	0.196815	0.1	-0.0304246	-0.204189	-0.0522721	0.372319	0.0692019	-0.510125	0.37839	2.41956	1.62162	0.0999996	0.0799179	-0.854358	-0.612324	-0.646316	2.12557	1.41118	0.041587	-0.0936917
1.575	-0.0242321	0.010256	-0.105495	0.803943	0.997694	-0.34838	-0.443356	-0.109008	-0.178434	-0.944047	-0.334558	-0.0715466	-0.00596628	0.678981	-0.0142058	-0.118502	-0.518429	0.190086	0.1	-0.0304246	-0.217535	-0.0457452	0.361191	0.044187	-0.507795	0.375929	2.40954	1.594	0.0999996	0.0799179	-0.852238	-0.619689	-0.683814	2.14966	1.40881	0.041587	-0.0936917
1.58333	-0.0121918	0.0019268	-0.0942024	0.803382	0.995921	-0.348078	-0.433939	-0.102532	-0.169968	-1.06746	-0.31795	-0.0715466	-0.00596628	0.64071	-0.0120126	-0.111326	-0.461121	0.181969	0.1	-0.0304246	-0.234526	-0.0415929	0.346198	0.0173666	-0.503994	0.368407	2.39341	1.56509	0.0999996	0.0799179	-0.848173	-0.627889	-0.721673	2.17437	1.41101	0.041587	-0.0936917
1.59167	0.00227656	-0.00365164	-0.0818097	0.802608	0.993615	-0.347934	-0.425072	-0.0970768	-0.162057	-1.19132	-0.298552	-0.0715466	-0.00596628	0.604408	-0.00699659	-0.102724	-0.424052	0.172047	0.1	-0.0304246	-0.254226	-0.0399221	0.327323	-0.0107689	-0.499059	0.35627	2.3712	1.53715	0.0999996	0.0799179	-0.841652	-0.637344	-0.759076	2.19939	1.41767	0.041587	-0.0936917
1.6	0.018111	-0.00621474	-0.0681917	0.801585	0.990747	-0.348007	-0.415929	-0.0932979	-0.156421	-1.3143	-0.276452	-0.0715466	-0.00596628	0.571584	0.00129109	-0.0924434	-0.407922	0.160346	0.1	-0.0304246	-0.275598	-0.0406032	0.304665	-0.0397419	-0.493225	0.340017	2.34292	1.51237	0.0999996	0.0799179	-0.831923	-0.648381	-0.795018	2.2243	1.42805	0.041587	-0.0936917
1.60833	0.0341761	-0.00573629	-0.0532955	0.800271	0.987284	-0.348345	-0.405232	-0.0918091	-0.154165	-1.43557	-0.252118	-0.0715466	-0.00596628	0.543447	0.0131233	-0.0803237	-0.41262	0.147772	0.1	-0.0304246	-0.29762	-0.0433392	0.278424	-0.0690623	-0.486608	0.32019	2.30858	1.49259	0.0999996	0.0799179	-0.81804	-0.661184	-0.828355	2.24862	1.44088	0.041587	-0.0936917
1.61667	0.0493864	-0.00238137	-0.0371513	0.798622	0.983223	-0.348973	-0.391376	-0.093097	-0.15565	-1.55462	-0.22648	-0.0715466	-0.00596628	0.520763	0.0285703	-0.0663472	-0.437157	0.136335	0.1	-0.0304246	-0.319394	-0.0477464	0.248869	-0.0982081	-0.479222	0.297391	2.26812	1.47888	0.0999996	0.0799179	-0.798936	-0.675755	-0.857865	2.27185	1.45484	0.041587	-0.0936917
1.625	0.0628068	0.00354461	-0.0198641	0.796579	0.978628	-0.34989	-0.372581	-0.097436	-0.160492	-1.67109	-0.200819	-0.0715466	-0.00596628	0.503698	0.0474764	-0.0506468	-0.479515	0.128988	0.1	-0.0304246	-0.340205	-0.0534114	0.21631	-0.12664	-0.471021	0.272249	2.2216	1.47148	0.0999996	0.0799179	-0.773527	-0.691876	-0.882283	2.29351	1.46883	0.041587	-0.0936917
1.63333	0.073731	0.0116346	-0.00159916	0.794094	0.973692	-0.351064	-0.347088	-0.104814	-0.167685	-1.78454	-0.176522	-0.0715466	-0.00596628	0.491668	0.0694304	-0.0334701	-0.536481	0.129025	0.1	-0.0304246	-0.359555	-0.0599126	0.181088	-0.153847	-0.461954	0.245401	2.16919	1.46988	0.0999996	0.0799179	-0.740827	-0.709099	-0.900329	2.31318	1.48221	0.041587	-0.0936917
1.64167	0.0817623	0.0213883	0.0174322	0.791139	0.968726	-0.352437	-0.313373	-0.114895	-0.17581	-1.89428	-0.154759	-0.0715466	-0.00596628	0.483264	0.0937495	-0.0150707	-0.603587	0.139204	0.1	-0.0304246	-0.37715	-0.0668168	0.14358	-0.179413	-0.452024	0.217462	2.11138	1.47298	0.0999996	0.0799179	-0.700084	-0.726745	-0.910769	2.3305	1.49493	0.041587	-0.0936917
1.65	0.0867967	0.0322196	0.0369524	0.787721	0.964063	-0.353928	-0.270382	-0.127004	-0.183292	-1.99917	-0.136204	-0.0715466	-0.00596628	0.476292	0.119443	0.00438746	-0.67533	0.160969	0.1	-0.0304246	-0.392903	-0.073634	0.104243	-0.203092	-0.441338	0.189015	2.04902	1.47931	0.0999996	0.0799179	-0.650926	-0.743928	-0.912515	2.3452	1.50751	0.041587	-0.0936917
1.65833	0.0890654	0.0434261	0.0565967	0.783889	0.959932	-0.355454	-0.217714	-0.140161	-0.188636	-2.09761	-0.120874	-0.0715466	-0.00596628	0.467998	0.145199	0.0248786	-0.745705	0.194053	0.1	-0.0304246	-0.406896	-0.0797779	0.0636829	-0.22487	-0.43016	0.160615	1.98351	1.4871	0.0999996	0.0799179	-0.593503	-0.759601	-0.904754	2.35711	1.52077	0.041587	-0.0936917
1.66667	0.0891116	0.0541711	0.0758961	0.779726	0.956456	-0.356946	-0.155747	-0.153151	-0.19066	-2.18759	-0.108163	-0.0715466	-0.00596628	0.455427	0.169411	0.0464943	-0.808916	0.236594	0.1	-0.0304246	-0.419319	-0.0845443	0.0226889	-0.245007	-0.418932	0.132775	1.91675	1.49429	0.0999996	0.0799179	-0.528601	-0.77264	-0.887104	2.36611	1.53547	0.041587	-0.0936917
1.675	0.0876904	0.0635119	0.0943082	0.775356	0.953736	-0.358353	-0.0856307	-0.164654	-0.188691	-2.26683	-0.0970293	-0.0715466	-0.00596628	0.435853	0.190286	0.0693685	-0.860064	0.285595	0.1	-0.0304246	-0.430385	-0.0871148	-0.0177882	-0.264036	-0.408265	0.105931	1.85116	1.4987	0.0999996	0.0799179	-0.457683	-0.781938	-0.859744	2.37221	1.55206	0.041587	-0.0936917
1.68333	0.0856285	0.0704664	0.111302	0.770948	0.951893	-0.359641	-0.00913807	-0.173406	-0.182704	-2.33306	-0.0862929	-0.0715466	-0.00596628	0.407189	0.206006	0.0935651	-0.895603	0.33747	0.1	-0.0304246	-0.440211	-0.086615	-0.0567447	-0.282717	-0.398882	0.0803924	1.78947	1.49823	0.0999996	0.0799179	-0.382855	-0.786531	-0.823488	2.3755	1.57044	0.041587	-0.0936917
1.69167	0.0836493	0.0741116	0.126465	0.766713	0.951057	-0.360797	0.0715603	-0.178376	-0.173361	-2.38422	-0.0749317	-0.0715466	-0.00596628	0.368256	0.214939	0.118956	-0.913489	0.38848	0.1	-0.0304246	-0.448732	-0.0822207	-0.0932806	-0.30194	-0.39153	0.0562849	1.7345	1.49124	0.0999996	0.0799179	-0.306738	-0.785716	-0.779768	2.37618	1.58991	0.041587	-0.0936917
1.7	0.0822157	0.0737057	0.139591	0.762874	0.951297	-0.361839	0.154186	-0.17892	-0.161934	-2.41874	-0.0622916	-0.0715466	-0.00596628	0.318917	0.215836	0.145126	-0.913087	0.434958	0.1	-0.0304246	-0.455662	-0.0732752	-0.126746	-0.322589	-0.386864	0.0335342	1.68872	1.47681	0.0999996	0.0799179	-0.232261	-0.779173	-0.730496	2.37458	1.60921	0.041587	-0.0936917
1.70833	0.0814367	0.0687901	0.150693	0.759633	0.952587	-0.362817	0.23663	-0.174866	-0.150109	-2.4357	-0.048165	-0.0715466	-0.00596628	0.26005	0.207985	0.17131	-0.894941	0.473399	0.1	-0.0304246	-0.460497	-0.059396	-0.156822	-0.345401	-0.385357	0.0118741	1.65398	1.45506	0.0999996	0.0799179	-0.162401	-0.767036	-0.677836	2.3711	1.62673	0.041587	-0.0936917
1.71667	0.0810589	0.0592276	0.159956	0.75714	0.954824	-0.363796	0.317146	-0.166528	-0.139709	-2.43492	-0.0327457	-0.0715466	-0.00596628	0.193393	0.191298	0.19635	-0.86053	0.500509	0.1	-0.0304246	-0.462608	-0.0405633	-0.183505	-0.370858	-0.387232	-0.00911381	1.63118	1.42729	0.0999996	0.0799179	-0.0998813	-0.749921	-0.623898	2.36621	1.64097	0.041587	-0.0936917
